<svg xmlns="http://www.w3.org/2000/svg" width="300" height="44" viewBox="1 2 300 44"><style>.a{fill:#0b7ee1;}</style><text x="8.5" y="43" style="-inkscape-font-specification:Deutschlander;font-family:Deutschlander;font-size:40px;letter-spacing:0px;line-height:100%;stroke-width:1px;word-spacing:0px"><tspan x="8.5" y="43"/></text><g transform="matrix(0.00888265 0 0 -0.00888265 145.34592 40.121375)" class="a"><path d="M2045 4000C1725 3971 1429 3867 1153 3688 997 3586 827 3436 738 3322 714 3292 688 3260 680 3251 644 3211 541 3047 489 2945 127 2235 247 1366 785 791 1125 428 1525 225 2010 169c140-16 403-6 540 20 314 60 574 172 827 358 100 74 266 234 346 333 104 130 237 341 237 376 0 5 15 46 34 89 40 96 78 221 101 330 9 44 20 88 26 97 11 22 12 48 1 48-4 0-14-28-21-62-45-226-188-555-292-673-10-11-41-49-70-83-268-329-678-564-1101-632-361-57-752-5-1065 141-34 16-64 29-67 29-9 0-191 114-241 150-88 65-227 193-293 270-35 41-77 91-94 110-49 57-128 187-184 305-235 496-230 1075 14 1575 51 104 147 258 205 327 145 174 319 326 472 416 39 22 77 46 85 53 20 16 143 68 260 110 252 90 524 122 792 93 98-10 327-58 384-79 15-6 29-9 31-6 6 6-154 57-265 85-184 48-441 68-627 51z" class="a"/><path d="m2237 3779c-229-26-428-94-683-231-117-63-317-235-418-358-33-41-66-81-73-88-16-17-114-176-142-230-20-40-21-43-4-38 10 2 79 15 153 27 245 40 511 29 584-24 17-12 15-17-33-81-28-37-60-85-71-107-11-21-24-39-29-39-5 0-18-23-30-52-26-63-37-225-23-338 11-92 44-253 53-260 10-8 29-236 29-354 0-128-19-359-30-366-4-3-9-25-11-50l-4-45 195 1c244 0 366 20 602 97 54 17 99 29 100 27 2-3 28-54 57-115l54-110 28 82c52 155 138 294 231 374 80 68 218 133 351 166l105 26-67 51c-36 28-92 71-124 95l-57 43 0 70c0 99-26 213-68 291-27 53-51 81-102 122-62 49-167 111-176 103-2-2 13-20 33-39 45-42 118-139 140-188 9-20 20-38 24-41 41-31 41-272 0-300-4-3-24-31-44-62-51-80-98-130-188-198-163-123-366-194-653-230-109-14-144-7-157 28-6 15-14 117-19 227-7 169-25 341-46 445-4 25-4 25 64 26 60 0 80 6 153 41 135 65 219 153 219 228 0 99-181 97-336-3-33-21-76-58-97-82-25-29-38-39-41-29-20 54-46 170-46 199 0 66 90 220 212 361 59 69 60 71 42 90-48 53-232 115-414 140-47 6-94 12-105 14-11 2-22 4-25 4-6 1 153 161 161 161 3 0 44 25 90 56 169 113 352 188 567 231 135 27 403 24 552-5 329-66 576-206 850-481 69-69 159-171 200-226 75-100 190-283 190-303 0-6 20-53 44-104 23-51 58-136 76-188 19-52 37-97 40-100 4-3 10-12 13-20 4-8 4 30 1 85-4 55-10 102-15 103-5 2-9 14-9 26 0 62-94 399-120 431-5 6-19 40-32 75-52 140-230 377-390 517-175 154-376 272-583 342-226 76-516 107-748 80z" class="a"/><path d="m2629 2990c101-48 242-134 294-180 74-65 134-163 166-270 6-19 15-82 21-140 27-273 115-452 271-556 37-24 70-44 73-44 3 0-15 26-41 57-96 118-130 229-142 458-6 104-15 177-26 210-80 234-288 408-570 476-111 26-120 24-46-11z" class="a"/></g><g style="-inkscape-font-specification:'Calligraph421 BT';fill:#959595;font-family:'Calligraph421 BT';font-size:40px;letter-spacing:0px;line-height:100%;stroke-width:1px;word-spacing:0px"><path d="m36.1 27.5q0 4.3-3.9 7.5-3.9 3.1-9.6 3.1-2 0-3.7-0.4-1.7-0.4-2-0.7-0.2-0.1-0.4-1.7-0.2-1.6-0.2-3.4 0-0.4 0.2-0.4 0.2-0.1 0.9-0.1 0.2 0 0.3 0.1 0.1 0.1 0.1 0.3l0 0.5q0 0.3 0 0.5 0 0.2 0.1 0.4 0.3 1.6 1.3 2.5 1.1 0.8 2.8 0.8 4.1 0 7.1-2.5 3-2.5 3-5.8 0-2-1.1-3-1.1-1-3.8-1.3-0.3 0-0.9-0.1-3-0.3-4.1-0.8-1.7-0.8-2.5-2.2-0.9-1.4-0.9-3.4 0-3.9 3.2-6.6 3.3-2.7 8-2.7 1.7 0 2.9 0.3 1.1 0.3 1.1 0.6 0 0.8-0.2 1.7-0.2 0.9-0.3 0.9-0.2 0-0.9-0.2-2.7-0.9-4.7-0.9-2.9 0-4.8 1.6-1.9 1.6-1.9 3.8 0 1 0.4 1.8 0.4 0.8 1.3 1.3 1.1 0.7 4.3 1.1 1.3 0.2 1.9 0.3 3.6 0.6 5.3 2.3 1.6 1.7 1.6 4.9z"/><path d="m61.1 24.3q-1-2.1-2.2-5.3-1.2-3.2-2.5-7.1-0.7 1.9-2.5 5.2-1.8 3.3-4.4 7.5 0.6 0 1.3 0 0.7 0 2.1 0 2.2 0 4.3-0.1 2.1-0.1 4-0.2zm0.8 2q-0.6 0-1.4 0-0.8 0-1.1 0-6.8 0-9.3 0.8-2.5 0.8-4.1 2.9-1.8 2.4-3.9 5.8-2.1 3.4-2.7 3.4-0.2 0-0.4-0.1-0.2-0.1-0.2-0.4 0-0.2 2.5-4.3 2.5-4.1 4.7-7.8 4.3-7.4 6.4-11.9 2.2-4.5 2.2-6 0-0.2-0.1-0.4-0.1-0.3-0.1-0.3 0-0.2 1.3-1 1.3-0.7 1.8-0.7 0.2 0 1.3 3.7 1.1 3.7 2.6 7.6 4.3 11 6 13.8 1.7 2.8 3.4 2.8 0.5 0 1-0.3 0.5-0.3 0.6-0.3 0.1 0 0.3 0.2 0.2 0.2 0.2 0.4 0 0.1-0.9 0.7-0.9 0.5-1.7 1.1-0.7 0.5-1.7 1.4-0.9 0.8-1.2 0.8-0.4 0-1.7-2.4-1.2-2.4-4.3-9.4z"/><path d="m86.6 25.8q-2.1 2.3-5.4 6.1-7.8 8.7-8.2 8.7-0.2 0-0.4-0.2-0.2-0.2-0.2-0.4 0-0.4 2.7-3.7 2.7-3.3 10.3-12.3-1.3-1.6-3.7-5.1-2.4-3.6-5.2-8.1-0.6 0.3-1.4 0.6-0.9 0.4-1 0.4-0.2 0-0.4-0.3-0.2-0.3-0.2-0.6 0-0.2 1-0.6 0.9-0.4 1.5-0.6 1.1-0.5 2.1-1.1 1-0.6 1-0.6 0.2 0 2.7 4.5 2.5 4.5 5.6 8.8 6.2-7.4 8.6-10.2 2.5-2.8 2.8-2.8 0.3 0 0.7 1.2 0.4 1.2 0.4 1.8 0 0.4-3.8 4.3-3.8 3.9-7.2 7.9 2.9 4.1 5.6 7.2 2.7 3.2 4.5 4.6 0.8 0.7 1.7 1.3 0.9 0.6 0.9 0.7 0 0.2-0.3 0.3-0.3 0.1-0.8 0.1-2 0-2.6-0.2-0.6-0.2-1.3-0.7-1.5-1.3-4-4.1-2.5-2.8-5.9-6.9z"/><path d="m135 16.7q-4.2 6.7-7.1 11.8-2.9 5.1-4.3 8.1-0.1 0-0.3 0-0.1 0-0.4 0-0.3 0-0.4 0-0.1 0-0.3 0-1.2-3.2-3.4-7.7-2.3-4.5-5.4-10-3.1 6.4-5.6 12-2.5 5.6-3.6 8.6-0.2 0.5-0.8 1-0.7 0.5-0.8 0.5-0.1 0-0.1-0.1 0-0.1 0-0.2 0-0.1 0.9-2.1 0.9-2 1.6-3.9 3.7-9.5 5.3-13.9 1.6-4.5 1.6-5.2 0-0.4-0.4-1.2-0.4-0.8-1.1-1.8-0.6-0.8-1.1-1.1-0.5-0.3-1.2-0.3-0.4 0-0.9 0.2-0.5 0.2-0.6 0.2-0.2 0-0.4-0.2-0.2-0.2-0.2-0.4 0-0.5 1.5-1.1 0.2-0.1 0.3-0.1 1.4-0.6 2.8-1.2 1.3-0.6 1.4-0.6 0.3 0 1.5 2.7 0.5 1.2 0.9 1.9 3.7 7.9 6 12 2.3 4.2 4.2 6.3 3.8-6.1 6.4-11 2.6-4.9 3.3-7.3-0.3-1.2-0.8-2.5-0.4-1.4-0.4-1.6 0-0.3 0.1-0.3 0.1-0.1 0.4-0.1 0.1 0 1.1 0.1 1 0.1 2 0.3 0.5 0.1 0.7 1.6 0.1 1 0.2 1.7 0.3 2 1 5 0.7 3 1.8 7.5 1.2 4.8 1.8 6.5 0.5 1.7 1 2.6 0.6 1.2 1.5 1.7 0.9 0.5 0.9 0.7 0 0.4-1.2 0.8-0.2 0.1-0.3 0.1-0.9 0.3-1.8 0.8-0.8 0.5-1 0.5-0.6 0-2.1-5.1-1.5-5.1-4.1-16.3z"/><path d="m202.3 36.3q5.4 0 8.7-3.6 3.3-3.6 3.3-9.4 0-6-3.4-9.8-3.4-3.9-8.7-3.9-5.5 0-8.9 3.7-3.5 3.6-3.5 9.5 0 5.9 3.6 9.7 3.6 3.8 9 3.8zM218.3 22.9q0 6.8-4.6 11-4.6 4.2-12.2 4.2-7.2 0-11.5-4-4.3-4.1-4.3-10.8 0-6.7 4.6-10.9 4.6-4.2 12-4.2 7.3 0 11.7 4.1 4.4 4.1 4.4 10.8z"/><path d="m234.8 34.3q0 0.3-2 1.2-1.7 0.8-2.9 1.4-1.5 0.8-3.1 1.8-1.6 1-1.7 1-0.2 0-0.4-0.3-0.2-0.3-0.2-0.5 0-0.2 0.8-0.8 0.8-0.5 1.1-1.2 0.3-0.7 0.4-4.5 0.1-3.9 0.1-12.3l0-3q0-3.6-0.1-4.6-0.1-1-0.5-1-0.6 0-1.9 0.7-1.3 0.7-1.5 0.7-0.2 0-0.3-0.2-0.1-0.2-0.1-0.6 0-0.2 0.3-0.4 0.3-0.2 1.5-0.8 2.9-1.4 5.7-2.1 2.8-0.7 5.4-0.7 3.6 0 5.6 1.8 2 1.8 2 5.1 0 1.8-1 3.6-0.9 1.8-2.7 3.2-0.2 0.2-0.6 0.5-0.9 0.7-0.9 1 0 0.5 2.6 3.5 2.6 3 5.8 5.9 2.1 1.8 4.1 3 2.1 1.2 2.1 1.3 0 0.3-0.9 0.6-0.9 0.3-1.7 0.3-1.4 0-3.4-1.4-2.1-1.4-7.4-6.5-3.2-3-4.4-4.3-1.2-1.3-1.2-1.7 0-0.3 0.7-0.6 0.7-0.3 1.2-0.6 1.6-0.9 2.6-2.7 1-1.8 1-3.8 0-2.9-1.4-4.7-1.4-1.9-3.6-1.9-1.3 0-2.2 0.6-0.9 0.6-1.1 1.8-0.2 1-0.4 5.8-0.2 4.8-0.2 11.2l0 1.7q0 2.4 0.2 3.1 0.2 0.6 0.9 0.6 0.9 0 1.9-0.5 1-0.5 1.1-0.5 0.2 0 0.3 0.3 0.2 0.3 0.2 0.5z"/><path d="m255.2 37.2q0.4-5.3 0.5-10.5 0.2-5.3 0.2-10.4 0-2.8-0.1-4.2-0.1-1.4-0.4-2.2-0.3 0-0.7 0-0.4 0-0.4 0-0.6 0-1.3 0.1-0.2 0-0.2 0-0.4 0-0.5-0.1-0.1-0.1-0.1-0.4 0-0.4 0.2-0.5 0.2-0.2 0.7-0.2 2.8-0.1 5.3-0.1 2.6-0.1 5.1-0.1 4.2 0 5.4 0.1 1.2 0.1 1.2 0.5 0 0.4-0.4 1.3-0.4 0.9-0.6 0.9-0.1 0-0.3-0.2-0.2-0.2-0.3-0.2-0.3-0.2-1.2-0.3-0.8-0.1-3.7-0.1-2.1 0-2.9 0-0.8 0-1.4 0.1-0.1 2.3-0.2 5-0.1 2.6-0.1 5.4 1.4-0.1 3.3-0.1 2-0.1 4.2-0.1l2.4 0q0.6 0 0.9 0.1 0.2 0.1 0.2 0.3 0 0.6-0.4 1.3-0.4 0.6-1 0.6 0 0-0.3 0-2.2-0.1-4.9-0.1-1.5 0-2.5 0.1-1.1 0-1.9 0.1-0.1 2.8-0.2 5.1 0 2.3 0 4.4l0 1.9q2.5 0.3 4.7 0.5 2.2 0.2 4.1 0.2 3.9 0 6.5-0.6 0.2 0 0.3 0 0.1 0 0.2 0.1 0.1 0.1 0.1 0.2 0 0.3-0.6 0.9-0.6 0.6-1.3 0.9-0.5 0.3-3.6 0.4-3.1 0.2-7.8 0.2-1.9 0-3.3-0.1-1.4-0.1-2.8-0.2z"/></g></svg>